
<svg xmlns="http://www.w3.org/2000/svg" viewBox="0 0 512 512" width="512" height="512">
  <defs>
    <linearGradient id="bgGrad" x1="0%" y1="0%" x2="100%" y2="100%">
      <stop offset="0%" style="stop-color:#4a9fff;stop-opacity:1" />
      <stop offset="100%" style="stop-color:#3880ff;stop-opacity:1" />
    </linearGradient>
  </defs>
  <!-- Background circle -->
  <circle cx="256" cy="256" r="256" fill="url(#bgGrad)"/>
  <!-- Football/Soccer ball -->
  <g transform="translate(102.4, 102.4) scale(3.072)">
    <!-- Ball base -->
    <circle cx="50" cy="50" r="45" fill="white" stroke="#e0e0e0" stroke-width="2"/>
    <!-- Pentagon pattern -->
    <path d="M50 15 L65 35 L58 55 L42 55 L35 35 Z" fill="#333"/>
    <path d="M20 45 L35 35 L42 55 L30 70 L15 60 Z" fill="#333"/>
    <path d="M80 45 L85 60 L70 70 L58 55 L65 35 Z" fill="#333"/>
    <path d="M30 70 L42 55 L58 55 L70 70 L60 85 L40 85 Z" fill="#333"/>
    <!-- Stitching lines -->
    <path d="M50 15 L50 5" stroke="#ccc" stroke-width="1.5" fill="none"/>
    <path d="M35 35 L25 25" stroke="#ccc" stroke-width="1.5" fill="none"/>
    <path d="M65 35 L75 25" stroke="#ccc" stroke-width="1.5" fill="none"/>
    <path d="M15 60 L5 55" stroke="#ccc" stroke-width="1.5" fill="none"/>
    <path d="M85 60 L95 55" stroke="#ccc" stroke-width="1.5" fill="none"/>
    <path d="M40 85 L35 95" stroke="#ccc" stroke-width="1.5" fill="none"/>
    <path d="M60 85 L65 95" stroke="#ccc" stroke-width="1.5" fill="none"/>
  </g>
</svg>
